<svg width="18" height="16" xmlns="http://www.w3.org/2000/svg" fill="#ce96da">
 <!--! Font Awesome Pro 6.2.0 by @fontawesome - https://fontawesome.com License - https://fontawesome.com/license (Commercial License) Copyright 2022 Fonticons, Inc. -->

 <g>
  <title>Layer 1</title>
  <path stroke="null" id="svg_1" d="m11.09375,3.70312c0.69355,0 1.25625,-0.57739 1.25625,-1.28906s-0.5627,-1.28906 -1.25625,-1.28906s-1.25625,0.57739 -1.25625,1.28906s0.5627,1.28906 1.25625,1.28906zm0.71188,1.71875l-1.61742,-1.31055c-0.45277,-0.36523 -1.09137,-0.37061 -1.54676,-0.00806l-2.17488,1.72412c-0.80348,0.63916 -0.7459,1.90137 0.11254,2.45996l1.5834,1.03125l0,2.97827c0,0.47534 0.37426,0.85938 0.8375,0.85938s0.8375,-0.38403 0.8375,-0.85938l0,-3.4375c0,-0.28735 -0.13871,-0.55591 -0.37164,-0.71436l-1.12016,-0.76538l1.57816,-1.30249l1.0652,0.87549c0.14918,0.12085 0.33238,0.18799 0.52344,0.18799l1.675,0c0.46324,0 0.8375,-0.38403 0.8375,-0.85938s-0.37426,-0.85938 -0.8375,-0.85938l-1.38188,0zm-5.94625,6.01563c0,1.06885 -0.84273,1.93359 -1.88438,1.93359s-1.88438,-0.86475 -1.88438,-1.93359s0.84273,-1.93359 1.88438,-1.93359s1.88438,0.86475 1.88438,1.93359zm1.46563,0c0,-1.89868 -1.49965,-3.4375 -3.35,-3.4375s-3.35,1.53882 -3.35,3.4375s1.49965,3.4375 3.35,3.4375s3.35,-1.53882 3.35,-3.4375zm8.58438,0c0,1.06885 -0.84273,1.93359 -1.88438,1.93359s-1.88438,-0.86475 -1.88438,-1.93359s0.84273,-1.93359 1.88438,-1.93359s1.88438,0.86475 1.88438,1.93359zm1.46563,0c0,-1.89868 -1.49965,-3.4375 -3.35,-3.4375s-3.35,1.53882 -3.35,3.4375s1.49965,3.4375 3.35,3.4375s3.35,-1.53882 3.35,-3.4375z"/>
 </g>
</svg>