<svg width="150" height="40" xmlns="http://www.w3.org/2000/svg" fill="none">

 <g>
  <title>Layer 1</title>
  <g stroke="null" id="svg_9">
   <path stroke="null" id="svg_1" fill="#FFF" d="m43.83017,26.3408l-3.09055,0l-6.78076,-20.30799c-0.09226,-0.26148 -0.06151,-0.43579 0.09226,-0.52296c0.15375,-0.1162 0.66116,-0.17432 1.52221,-0.17432c0.86104,-0.02905 2.291,-0.04358 4.28987,-0.04358l1.3377,5.70891c0.123,0.52295 0.24601,1.16211 0.36902,1.91748c0.15375,0.72633 0.29214,1.49619 0.41515,2.30971c0.123,0.81352 0.23064,1.58335 0.32289,2.30971c0.09226,0.72636 0.15375,1.33647 0.18451,1.83034c0.0615,-0.49386 0.13838,-1.10398 0.23064,-1.83034c0.09226,-0.72636 0.19988,-1.49619 0.32289,-2.30971c0.123,-0.81352 0.24601,-1.5979 0.36902,-2.35328c0.15375,-0.75538 0.29214,-1.39455 0.41515,-1.9175l1.10706,-4.79372c0.09226,-0.29053 0.23064,-0.49391 0.41514,-0.61011c0.18451,-0.11622 0.64579,-0.18885 1.38383,-0.21791c0.73804,-0.02905 1.98349,-0.04358 3.73634,-0.04358l-6.64236,21.04885zm-4.10536,9.45673l0,-15.90648l5.16629,0l0,15.0349c0,0.29057 -0.07688,0.49386 -0.23064,0.61011c-0.12301,0.11625 -0.53816,0.18881 -1.24545,0.2179c-0.7073,0.02909 -1.93736,0.04358 -3.69021,0.04358z"/>
   <path stroke="null" id="svg_2" fill="#FFF" d="m55.67699,36.23332c-1.22999,0 -2.30638,-0.14523 -3.22893,-0.43579c-0.92255,-0.26148 -1.69127,-0.78443 -2.30638,-1.56886c-0.58421,-0.81352 -1.03014,-1.96107 -1.3377,-3.44277c-0.27677,-1.51079 -0.41515,-3.48635 -0.41515,-5.9268c0,-3.95124 0.66124,-6.81288 1.98349,-8.58514c1.35315,-1.80125 3.24439,-2.70191 5.6737,-2.70191c1.66059,0 3.01375,0.31958 4.05923,0.95874c1.07639,0.61011 1.86056,1.72869 2.35251,3.35561c0.52286,1.59795 0.78417,3.86408 0.78417,6.79839c0,4.21271 -0.64579,7.1906 -1.93736,8.93378c-1.26078,1.74318 -3.13668,2.61476 -5.62757,2.61476zm0.13838,-4.05288c0.30756,0 0.58432,-0.14523 0.8303,-0.43579c0.27677,-0.29057 0.49207,-0.95875 0.64579,-2.00465c0.18451,-1.04591 0.27677,-2.68743 0.27677,-4.92447c0,-2.09181 -0.04613,-3.64618 -0.13838,-4.663c-0.09226,-1.04591 -0.26131,-1.72869 -0.5074,-2.04823c-0.24598,-0.31955 -0.59966,-0.47937 -1.06093,-0.47937c-0.33823,0 -0.64579,0.17432 -0.92255,0.52295c-0.27677,0.31955 -0.49195,1.00233 -0.64579,2.04823c-0.15372,1.01682 -0.23064,2.55669 -0.23064,4.61942c0,1.68511 0.03079,3.03607 0.09226,4.05288c0.09226,0.98784 0.19996,1.71409 0.32289,2.17897c0.15384,0.46488 0.33835,0.76994 0.55353,0.91517c0.24609,0.14523 0.5074,0.2179 0.78417,0.2179z"/>
   <path stroke="null" id="svg_3" fill="#FFF" d="m72.48151,36.23332c-1.8451,0 -3.27506,-0.26148 -4.28987,-0.78443c-0.98402,-0.52295 -1.67593,-1.2638 -2.07574,-2.22255c-0.3997,-0.98784 -0.59966,-2.16448 -0.59966,-3.52993l0,-14.817c0,-0.29057 0.06158,-0.49386 0.18451,-0.61011c0.15384,-0.11625 0.59966,-0.18881 1.3377,-0.2179c0.76883,-0.02909 2.04507,-0.04358 3.82859,-0.04358l0,15.99364c0,0.43579 0.03079,0.81352 0.09226,1.13306c0.09226,0.29057 0.24609,0.52295 0.46128,0.69727c0.2153,0.14523 0.53819,0.2179 0.96868,0.2179c0.30756,0 0.61511,-0.04358 0.92255,-0.13074c0.30756,-0.08716 0.58432,-0.23239 0.8303,-0.43579l0,-16.60375c0,-0.29057 0.06158,-0.49386 0.18451,-0.61011c0.15384,-0.11625 0.58432,-0.18881 1.29157,-0.2179c0.70737,-0.02909 1.93736,-0.04358 3.69021,-0.04358l0,20.56948c-0.73804,0.4067 -1.72206,0.78443 -2.95217,1.13306c-1.19932,0.34864 -2.49089,0.52295 -3.87472,0.52295z"/>
   <path stroke="null" id="svg_4" fill="#FFF" d="m82.23289,35.79753l0,-20.26442c0.79951,-0.52295 1.7374,-0.97324 2.81378,-1.35096c1.10706,-0.40674 2.30638,-0.6101 3.59795,-0.6101c1.26078,0 2.09108,0.17431 2.49089,0.52294c0.3997,0.34864 0.59966,0.90068 0.59966,1.65602c0,0.29057 -0.03079,0.69727 -0.09226,1.22022c-0.06158,0.52295 -0.19996,1.0604 -0.41515,1.61244c-0.30756,-0.14523 -0.61511,-0.23239 -0.92255,-0.26148c-0.27677,-0.05807 -0.53819,-0.08716 -0.78417,-0.08716c-0.27677,0 -0.59966,0.05807 -0.96868,0.17432c-0.36902,0.11625 -0.70737,0.29057 -1.01481,0.52295l-0.04613,15.99364c0,0.29057 -0.07692,0.49386 -0.23064,0.61011c-0.12305,0.11625 -0.55353,0.18881 -1.29157,0.2179c-0.73804,0.02909 -1.98349,0.04358 -3.73634,0.04358z"/>
   <path stroke="null" id="svg_5" fill="#FFF" d="m93.58132,35.79753l0,-29.63399c0,-0.29053 0.09226,-0.50843 0.27677,-0.6537c0.18451,-0.14526 0.52274,-0.2179 1.01481,-0.2179l4.52051,0c0.98402,0 1.93736,0.10169 2.85991,0.30507c0.92255,0.17432 1.75285,0.50842 2.49089,1.00233c0.73804,0.4939 1.32236,1.19117 1.75285,2.09181c0.46128,0.87159 0.69191,2.01918 0.69191,3.44277c0,1.4817 -0.2153,2.731 -0.64579,3.74782c-0.43049,0.98784 -0.96868,1.75767 -1.61447,2.30971c-0.64579,0.52295 -1.30691,0.82801 -1.98349,0.91517c0.55353,0.05807 1.13785,0.18881 1.75285,0.39221c0.615,0.17432 1.18398,0.49386 1.70672,0.95875c0.55353,0.43579 0.99947,1.0604 1.3377,1.87391c0.33823,0.78443 0.5074,1.81584 0.5074,3.09414c0,1.16215 -0.10759,2.26613 -0.32289,3.31203c-0.18451,1.01682 -0.49207,1.96107 -0.92255,2.83266c-0.43049,0.8425 -0.98402,1.58335 -1.66059,2.22255c-0.67658,0.6392 -1.49142,1.13306 -2.44476,1.4817c-0.92255,0.34864 -2.01428,0.52295 -3.27506,0.52295l-6.04272,0zm5.25855,-4.2272l0.92255,0c0.36902,0 0.69191,-0.13074 0.96868,-0.39221c0.27677,-0.26148 0.5074,-0.6392 0.69191,-1.13306c0.2153,-0.49386 0.36902,-1.08949 0.46128,-1.78676c0.12305,-0.69727 0.18451,-1.49619 0.18451,-2.39687c0,-0.98784 -0.04613,-1.77227 -0.13838,-2.35329c-0.09226,-0.58102 -0.23064,-1.01682 -0.41515,-1.30738c-0.18451,-0.31955 -0.41515,-0.52295 -0.69191,-0.61011c-0.27677,-0.11625 -0.59966,-0.17432 -0.96868,-0.17432l-1.01481,0l0,10.154zm0,-14.25047l0.87642,0c0.36902,0 0.67658,-0.17432 0.92255,-0.52295c0.27677,-0.34864 0.47661,-0.82801 0.59966,-1.43812c0.15372,-0.6392 0.23064,-1.36548 0.23064,-2.17897c0,-1.01685 -0.07692,-1.78674 -0.23064,-2.3097c-0.12305,-0.52295 -0.30756,-0.87159 -0.55353,-1.04591c-0.24598,-0.17433 -0.5074,-0.26149 -0.78417,-0.26149l-1.06093,0l0,7.75713z"/>
   <path stroke="null" id="svg_6" fill="#FFF" d="m110.25172,35.79753l0,-19.65431c0,-0.72636 0.13838,-1.23471 0.41515,-1.52528c0.30756,-0.29057 0.8303,-0.46488 1.56834,-0.52295c0.76883,-0.05807 1.86056,-0.08716 3.27506,-0.08716l0,20.91812c0,0.29057 -0.0768,0.49386 -0.23064,0.61011c-0.12293,0.11625 -0.55353,0.18881 -1.29157,0.2179c-0.73804,0.02909 -1.98349,0.04358 -3.73634,0.04358zm2.49089,-23.75077c-0.76872,0 -1.38383,-0.24695 -1.8451,-0.74085c-0.43049,-0.49391 -0.64579,-1.4236 -0.64579,-2.78909c0,-1.01685 0.23064,-1.83032 0.69191,-2.44044c0.46128,-0.63917 1.16864,-0.95876 2.12187,-0.95876c0.95334,0 1.59913,0.23243 1.93736,0.69728c0.33835,0.46484 0.5074,1.29285 0.5074,2.48402c0,1.16212 -0.24598,2.07729 -0.73804,2.74551c-0.46128,0.66821 -1.13774,1.00233 -2.02961,1.00233z"/>
   <path stroke="null" id="svg_7" fill="#FFF" d="m118.54027,35.79753l0,-29.89547c0,-0.72632 0.13838,-1.23475 0.41515,-1.52527c0.27677,-0.29053 0.78417,-0.46485 1.52221,-0.52296c0.76883,-0.0581 1.86056,-0.08715 3.27506,-0.08715l0,11.02558c0.61511,-0.31955 1.3377,-0.59562 2.168,-0.82801c0.86109,-0.26148 1.7683,-0.3922 2.72153,-0.3922c1.0456,0 1.8451,0.18884 2.39864,0.56652c0.55353,0.37772 0.92255,0.8571 1.10706,1.43812c0.2153,0.55204 0.32289,1.11857 0.32289,1.6996c0,0.81352 -0.09226,1.56886 -0.27677,2.26613c-0.15372,0.69727 -0.36902,1.32187 -0.64579,1.87391c-0.27677,0.55204 -0.56887,1.03142 -0.87642,1.43812c-0.30744,0.4067 -0.59966,0.74085 -0.87642,1.00233c0.79962,0.55204 1.42996,1.24931 1.89123,2.09181c0.49207,0.8425 0.84575,1.78676 1.06093,2.83266c0.24609,1.04591 0.36902,2.14988 0.36902,3.31203c0,0.46488 -0.01534,0.95875 -0.04613,1.4817c0,0.49386 -0.03067,0.98784 -0.09226,1.4817c-0.03067,0.23239 -0.13838,0.4067 -0.32289,0.52295c-0.18451,0.11625 -0.67646,0.18881 -1.47608,0.2179c-0.79951,0 -2.168,0 -4.10536,0c0.06158,-0.75534 0.10771,-1.49619 0.13838,-2.22255c0.06158,-0.75534 0.09226,-1.4817 0.09226,-2.17897c0,-0.8425 -0.04613,-1.59795 -0.13838,-2.26613c-0.06147,-0.66818 -0.18451,-1.23471 -0.36902,-1.6996c-0.15372,-0.49386 -0.38436,-0.8425 -0.69191,-1.04591c-0.27677,-0.23239 -0.64579,-0.30506 -1.10706,-0.2179c-0.24598,0.02909 -0.46128,0.10165 -0.64579,0.2179c-0.18451,0.08716 -0.33823,0.17432 -0.46128,0.26148c-0.09226,0.08716 -0.13838,0.13074 -0.13838,0.13074l0,8.14935c0,0.29057 -0.0768,0.49386 -0.23064,0.61011c-0.12293,0.11625 -0.55353,0.18881 -1.29157,0.2179c-0.70725,0.02909 -1.93736,0.04358 -3.69021,0.04358zm5.21242,-12.28939c0.64579,-0.34864 1.18398,-0.72636 1.61447,-1.13306c0.4306,-0.4067 0.75349,-0.87159 0.96868,-1.39454c0.2153,-0.55204 0.32289,-1.17664 0.32289,-1.87391c0,-0.78443 -0.30744,-1.17664 -0.92255,-1.17664c-0.3997,0 -0.76872,0.11625 -1.10706,0.34864c-0.30744,0.20341 -0.59966,0.49386 -0.87642,0.87159l0,4.35794z"/>
   <path stroke="null" id="svg_8" fill="#FFF" d="m142.46032,36.23332c-1.04548,0 -2.01416,-0.14523 -2.90604,-0.43579c-0.86097,-0.31955 -1.61447,-0.8571 -2.26025,-1.61244c-0.615,-0.75534 -1.10706,-1.80125 -1.47608,-3.13772c-0.33823,-1.33647 -0.5074,-3.03607 -0.5074,-5.09879c0,-2.64385 0.2153,-4.77924 0.64579,-6.40617c0.4306,-1.62693 1.01481,-2.86175 1.75285,-3.70425c0.76883,-0.87159 1.64526,-1.46721 2.62927,-1.78676c0.98413,-0.31958 2.01428,-0.47936 3.09055,-0.47936c1.8451,0 3.29051,0.55203 4.336,1.65601c1.0456,1.10398 1.56834,2.91982 1.56834,5.44743c0,1.04591 -0.04613,2.13539 -0.13838,3.26846c-0.09226,1.10398 -0.26131,2.07732 -0.5074,2.91982c-0.89176,0.17432 -1.92191,0.30506 -3.09055,0.39221c-1.16853,0.08716 -2.30638,0.15983 -3.41344,0.2179c-1.10706,0.02909 -2.02961,0.04358 -2.76766,0.04358c-0.70725,0 -1.06093,0 -1.06093,0l0.09226,-3.87857c0,0 0.2153,0.01449 0.64579,0.04358c0.46128,0 1.01481,0 1.66059,0c0.64579,0 1.27624,-0.02909 1.89123,-0.08716c0.61511,-0.05807 1.09173,-0.15983 1.42996,-0.30506c0.09226,-0.26148 0.15384,-0.61011 0.18451,-1.04591c0.03079,-0.46488 0.04613,-0.87159 0.04613,-1.22022c0,-1.39454 -0.12293,-2.28062 -0.36902,-2.65834c-0.21519,-0.37772 -0.615,-0.56653 -1.19932,-0.56653c-0.3997,0 -0.73804,0.15983 -1.01481,0.47937c-0.27677,0.31955 -0.49195,0.81352 -0.64579,1.4817c-0.15372,0.6392 -0.26131,1.45261 -0.32289,2.44045c-0.06147,0.95875 -0.09226,2.1063 -0.09226,3.44277c0,1.01682 0.03079,1.903 0.09226,2.65834c0.09226,0.72636 0.23064,1.32187 0.41515,1.78676c0.2153,0.46488 0.52286,0.81352 0.92255,1.04591c0.4306,0.23239 0.96868,0.34864 1.61447,0.34864c0.8303,0 1.64526,-0.10165 2.44476,-0.30506c0.8303,-0.23239 1.64526,-0.53744 2.44476,-0.91517c0.15384,0.43579 0.26143,0.97324 0.32289,1.61244c0.06158,0.61011 0.09226,1.16215 0.09226,1.65602c0,0.58102 -0.30744,1.075 -0.92255,1.4817c-0.58421,0.4067 -1.36838,0.71176 -2.35251,0.91517c-0.98402,0.20341 -2.07574,0.30506 -3.27506,0.30506z"/>
  </g>
  <g stroke="null">
   <!--! Font Awesome Pro 6.2.0 by @fontawesome - https://fontawesome.com License - https://fontawesome.com/license (Commercial License) Copyright 2022 Fonticons, Inc. -->
   <g stroke="null">
    <title stroke="null" fill="#FFF">Layer 1</title>
    <path stroke="null" fill="#FFF" d="m20.7187,16.1781c1.32844,0 2.40625,-0.91333 2.40625,-2.03906s-1.07781,-2.03906 -2.40625,-2.03906s-2.40625,0.91333 -2.40625,2.03906s1.07781,2.03906 2.40625,2.03906zm1.36355,2.71875l-3.09804,-2.07305c-0.86724,-0.57773 -2.09043,-0.58624 -2.96269,-0.01275l-4.16581,2.72724c-1.539,1.01103 -1.42871,3.00762 0.21556,3.89121l3.03288,1.63125l0,4.71108c0,0.7519 0.71687,1.35938 1.60416,1.35938s1.60416,-0.60746 1.60416,-1.35938l0,-5.43749c0,-0.45453 -0.26569,-0.87935 -0.71185,-1.12999l-2.14558,-1.21069l3.02284,-2.0603l2.04031,1.38486c0.28574,0.19116 0.63665,0.29737 1.00261,0.29737l3.20833,0c0.8873,0 1.60416,-0.60746 1.60416,-1.35938s-0.71687,-1.35938 -1.60416,-1.35938l-2.64688,0l0,0.00003zm-11.38957,9.51562c0,1.69072 -1.61418,3.05858 -3.60938,3.05858s-3.60938,-1.36788 -3.60938,-3.05858s1.61418,-3.05858 3.60938,-3.05858s3.60938,1.36788 3.60938,3.05858zm2.8073,0c0,-3.00336 -2.87246,-5.43749 -6.41666,-5.43749s-6.41666,2.43413 -6.41666,5.43749s2.87246,5.43749 6.41666,5.43749s6.41666,-2.43413 6.41666,-5.43749zm16.44269,0c0,1.69072 -1.61418,3.05858 -3.60938,3.05858s-3.60938,-1.36788 -3.60938,-3.05858s1.61418,-3.05858 3.60938,-3.05858s3.60938,1.36788 3.60938,3.05858zm2.8073,0c0,-3.00336 -2.87246,-5.43749 -6.41666,-5.43749s-6.41666,2.43413 -6.41666,5.43749s2.87246,5.43749 6.41666,5.43749s6.41666,-2.43413 6.41666,-5.43749z" id="svg_10"/>
   </g>
  </g>
 </g>
</svg>